<svg width="25" height="24" viewBox="0 0 25 24" fill="none" xmlns="http://www.w3.org/2000/svg">
<path d="M12.456 10.356V13.807H17.248C16.802 16 14.935 17.26 12.456 17.26C9.56855 17.2203 7.24866 14.8682 7.24866 11.9805C7.24866 9.09277 9.56855 6.74073 12.456 6.70099C13.6562 6.69956 14.8195 7.11607 15.746 7.87899L18.346 5.27899C15.3636 2.65706 11.008 2.31983 7.65756 4.45144C4.30711 6.58305 2.76702 10.6712 3.87825 14.4836C4.98947 18.296 8.48495 20.9164 12.456 20.914C16.923 20.914 20.985 17.665 20.985 11.98C20.9781 11.4326 20.911 10.8877 20.785 10.355L12.456 10.356Z" fill="#F9FAFB"/>
</svg>
